<svg height="512" viewBox="0 0 40 58" width="512" xmlns="http://www.w3.org/2000/svg"><g id="Page-1" fill="none" fill-rule="evenodd"><g id="013---Water" fill-rule="nonzero"><path id="Shape" d="m39.91 36.43c-.0785032-1.085181-.2457285-2.1621123-.5-3.22-.97-4.05-3.24-7.08-5.9-10.19-2.75-3.21-5.68-6.33-7.85-9.99-2.2869314-3.96844115-4.0292433-8.22667851-5.18-12.66-.0560337-.2189366-.2540119-.37154476-.48-.37h-.04c-.2259881-.00154476-.4239663.1510634-.48.37-1.1507567 4.43332149-2.8930686 8.69155885-5.18 12.66-2.17 3.66-5.1 6.78-7.85 9.99-2.66 3.11-4.93 6.14-5.9 10.19-.25586812 1.0538139-.4198163 2.1278418-.49 3.21-.22704328 3.0424015.25563799 6.0959596 1.41 8.92 1.49177951 3.7261541 4.06137798 6.922484 7.38 9.18 3.2700631 2.2488992 7.1413078 3.4614943 11.11 3.48h.04c3.9686922-.0185057 7.8399369-1.2311008 11.11-3.48 3.3057229-2.2490734 5.8677029-5.4306626 7.36-9.14h.01c1.1560752-2.8343725 1.6453327-5.8965087 1.43-8.95z" fill="#4482c3"/><path id="Shape" d="m38.48 45.38h-.01c-1.0002824 1.0306618-2.3737549 1.614658-3.81 1.62-3.67 0-3.67-3-7.33-3s-3.67 3-7.34 3-3.66-3-7.33-3-3.66 3-7.33 3c-1.45800852-.0095278-2.85020367-.6082439-3.86-1.66-1.15436201-2.8240404-1.63704328-5.8775985-1.41-8.92 1.8.82 2.46 2.58 5.27 2.58 3.67 0 3.67-3 7.33-3s3.67 3 7.33 3 3.67-3 7.34-3 3.66 3 7.33 3c2.8 0 3.46-1.75 5.25-2.57.2153327 3.0534913-.2739248 6.1156275-1.43 8.95z" fill="#285680"/><path id="Shape" d="m38.47 45.38c-1.4922971 3.7093374-4.0542771 6.8909266-7.36 9.14-3.2700631 2.2488992-7.1413078 3.4614943-11.11 3.48h-.04c-3.9686922-.0185057-7.8399369-1.2311008-11.11-3.48-3.31862202-2.257516-5.88822049-5.4538459-7.38-9.18 1.00979633 1.0517561 2.40199148 1.6504722 3.86 1.66 3.67 0 3.67-3 7.33-3s3.67 3 7.33 3 3.67-3 7.34-3 3.66 3 7.33 3c1.4362451-.005342 2.8097176-.5893382 3.81-1.62z" fill="#67b9cc"/><g fill="#fff"><path id="Shape" d="m4.441 35.14c-.07883948.000065-.15740164-.0093356-.234-.028-.53665807-.1289064-.86740887-.6682227-.739-1.205.781-3.254 2.521-5.741 5.263-8.938.471-.551.943-1.094 1.426-1.647l.113-.13c1.163-1.344 2.365-2.734 3.522-4.167.2219636-.2854704.580752-.4288711.9383308-.3750325s.6582358.2965283.786301.6347005c.1280653.3381723.0635857.7191385-.1686318.996332-1.178 1.46-2.392 2.863-3.566 4.219l-.115.134c-.481.551-.949 1.088-1.416 1.636-2.545 2.966-4.151 5.242-4.839 8.1-.10645784.4504561-.50813611.7689858-.971.77z"/><path id="Shape" d="m17.115 17.074c-.3655265-.000243-.7017973-.1999019-.876991-.5207085s-.1613934-.7116406.035991-1.0192915c.208-.324.4096667-.6513333.605-.982.1740262-.3224722.5104878-.5239365.8769194-.5250761.3664316-.0011397.7041398.1982279.8801685.5196114.1760286.3213834.1621822.713305-.0360879 1.0214647-.208.354-.4226667.703-.644 1.047-.184023.2860767-.5008466.4589923-.841.459z"/></g></g></g></svg>